<?xml version="1.0" encoding="UTF-8" standalone="no"?><!DOCTYPE svg PUBLIC "-//W3C//DTD SVG 1.1//EN" "http://www.w3.org/Graphics/SVG/1.1/DTD/svg11.dtd"><svg width="100%" height="100%" viewBox="0 0 8736 1787" version="1.1" xmlns="http://www.w3.org/2000/svg" xmlns:xlink="http://www.w3.org/1999/xlink" xml:space="preserve" xmlns:serif="http://www.serif.com/" style="fill-rule:evenodd;clip-rule:evenodd;stroke-linejoin:round;stroke-miterlimit:2;"><rect id="Artboard1" x="0" y="0" width="8736" height="1787" style="fill:none;"/><path d="M1191.74,15.443l510.48,370.885l-255.24,351.307l412.987,134.188l-194.986,600.105l-412.987,-134.188l0,434.24l-630.987,0l-0,-434.24l-412.987,134.188l-194.986,-600.105l412.987,-134.188l-255.24,-351.307l510.48,-370.885l255.24,351.307l255.24,-351.307Zm-365.538,486.057l-221.596,160.999l110.798,152.5l-179.275,58.25l84.642,260.502l179.275,-58.25l0,188.501l273.908,0l0,-188.501l179.275,58.25l84.642,-260.502l-179.275,-58.25l110.798,-152.5l-221.596,-160.999l-110.798,152.5l-110.798,-152.5Z" style="fill:#fff;"/><g transform="matrix(1338.181563,0,0,1338.181563,8720.03199,1463.253914)"></g><text x="2300.775px" y="1463.254px" style="font-family:'CameraObscuraDEMO', 'Camera Obscura';font-size:1338.182px;fill:#fff;">FotoLabb</text></svg>